<svg id="Calque_1" data-name="Calque 1" xmlns="http://www.w3.org/2000/svg" viewBox="0 0 62.84 62.84" width="62.84" height="62.84"><defs><style>.cls-1,.cls-3{fill:#fff;}.cls-1{opacity:0.25;}.cls-2{fill:none;stroke:#fff;stroke-miterlimit:10;}</style></defs><circle class="cls-1" cx="31.42" cy="31.42" r="30.92"/><circle class="cls-2" cx="31.42" cy="31.42" r="30.92"/><path class="cls-3" d="M2831.74,110.16a1.15,1.15,0,0,1-1.36-1.27l-.17-2c-.06-.56-.08-.94-.08-1.14a1.39,1.39,0,0,1,.21-.81,2.51,2.51,0,0,1,.89-.63l1.27-.68a9.3,9.3,0,0,0,2.8-2.12,3.81,3.81,0,0,0,.85-2.46,2.45,2.45,0,0,0-.83-2,3.7,3.7,0,0,0-2.39-.68,12.83,12.83,0,0,0-4.29.85,5.73,5.73,0,0,1-1.31.39c-.6,0-.89-.39-.89-1.15v-2.8a2.06,2.06,0,0,1,.23-1.12,2.26,2.26,0,0,1,1-.7,16.54,16.54,0,0,1,6.79-1.4,10.17,10.17,0,0,1,6.82,2.1,7.26,7.26,0,0,1,2.47,5.83,8.16,8.16,0,0,1-1.66,5.09,16.8,16.8,0,0,1-5.43,4.2v1.27a1.45,1.45,0,0,1-.27,1,1.39,1.39,0,0,1-1,.29Zm2,11.07a4.5,4.5,0,0,1-3.29-1.23,4.77,4.77,0,0,1,0-6.44,5,5,0,0,1,6.58,0,4.77,4.77,0,0,1,0,6.44A4.5,4.5,0,0,1,2833.69,121.23Z" transform="translate(-2803.69 -74.39)"/></svg>