<svg id="Calque_1" data-name="Calque 1" xmlns="http://www.w3.org/2000/svg" viewBox="0 0 62.84 62.84" width="62.84" height="62.84"><defs><style>.cls-1,.cls-3{fill:#fff;}.cls-1{opacity:0.25;}.cls-2{fill:none;stroke:#fff;stroke-miterlimit:10;}</style></defs><circle class="cls-1" cx="31.42" cy="31.42" r="30.92"/><circle class="cls-2" cx="31.42" cy="31.42" r="30.92"/><g id="l43FH9"><path class="cls-3" d="M680,388.94c.22-.23.2-.16,0-.39-.59-.65-1.22-1.24-1.83-1.87-.11-.11-.16-.12-.28,0l-7.62,7.63a.93.93,0,0,0-.13.15l0,0V389.1c0-.13,0-.17-.17-.17h-2.88V399.6c0,.11,0,.13.14.13h10.66v-2c0-.34,0-.68,0-1-.33,0-.67,0-1,0h-4.53a1.92,1.92,0,0,0,.2-.19C675,394,677.57,391.49,680,388.94Z" transform="translate(-651.1 -352.88)"/><path class="cls-3" d="M698,369c0-.1,0-.13-.13-.13H687.28c-.11,0-.13,0-.13.13,0,.92,0,1.85,0,2.77,0,.14.05.15.16.15h5.34l0,0-.17.16-7.61,7.61c-.1.09-.12.14,0,.25.66.65,1.32,1.31,2,2,.1.1.15.1.25,0q3.82-3.84,7.66-7.66s.07-.1.14-.12v5.35c0,.13,0,.16.17.16h2.75c.1,0,.13,0,.13-.12Z" transform="translate(-651.1 -352.88)"/></g><g id="l43FH9-2" data-name="l43FH9"><path class="cls-3" d="M677.88,381.82c.23.22.16.2.39,0,.65-.59,1.24-1.22,1.87-1.83.11-.1.13-.16,0-.28l-7.63-7.62-.16-.13,0,0h5.33c.13,0,.18,0,.17-.17v-2.88H667.23c-.12,0-.14,0-.14.14v10.66h2a6.79,6.79,0,0,0,1,0,8.35,8.35,0,0,0,0-1v-4.53a1.92,1.92,0,0,0,.19.2C672.84,376.83,675.33,379.35,677.88,381.82Z" transform="translate(-651.1 -352.88)"/><path class="cls-3" d="M697.82,399.73c.1,0,.13,0,.13-.12V389.06c0-.1,0-.13-.13-.13h-2.77c-.13,0-.15.05-.15.16v5.34l0,0-.16-.17-7.61-7.61c-.09-.1-.14-.12-.25,0l-2,2c-.1.1-.09.15,0,.25q3.84,3.83,7.66,7.66a.28.28,0,0,1,.12.14h-5.35c-.13,0-.16,0-.16.17v2.75c0,.1,0,.13.13.13Z" transform="translate(-651.1 -352.88)"/></g></svg>