<svg id="Calque_1" data-name="Calque 1" xmlns="http://www.w3.org/2000/svg" viewBox="0 0 1647.95 869.3"><defs><style>.cls-1,.cls-2,.cls-3,.cls-5{fill:none;stroke:#fff;stroke-miterlimit:10;}.cls-1{stroke-width:0.57px;}.cls-2,.cls-5{stroke-width:0.28px;}.cls-3{stroke-width:1.13px;}.cls-4{fill:#fff;}.cls-5{stroke-dasharray:12.04 12.04;}</style></defs><line class="cls-1" x1="1582.06" y1="0.32" x2="63.89" y2="0.32"/><line class="cls-1" x1="1584.06" y1="217.48" x2="63.89" y2="217.48"/><line class="cls-1" x1="1512.62" y1="434.65" x2="204.06" y2="434.65"/><line class="cls-1" x1="1584.06" y1="651.82" x2="63.89" y2="651.82"/><line class="cls-1" x1="1584.06" y1="868.98" x2="63.89" y2="868.98"/><line class="cls-2" x1="7.4" y1="20.06" x2="19.59" y2="20.06"/><line class="cls-2" x1="7.4" y1="39.8" x2="19.59" y2="39.8"/><line class="cls-2" x1="7.4" y1="59.55" x2="19.59" y2="59.55"/><line class="cls-2" x1="7.4" y1="79.29" x2="19.59" y2="79.29"/><line class="cls-2" x1="7.4" y1="99.03" x2="19.59" y2="99.03"/><line class="cls-2" x1="7.4" y1="118.77" x2="19.59" y2="118.77"/><line class="cls-2" x1="7.4" y1="138.52" x2="19.59" y2="138.52"/><line class="cls-2" x1="7.4" y1="158.26" x2="19.59" y2="158.26"/><line class="cls-2" x1="7.4" y1="178" x2="19.59" y2="178"/><line class="cls-2" x1="7.4" y1="197.74" x2="19.59" y2="197.74"/><line class="cls-2" x1="7.4" y1="237.23" x2="19.59" y2="237.23"/><line class="cls-2" x1="7.4" y1="256.97" x2="19.59" y2="256.97"/><line class="cls-2" x1="7.4" y1="612.33" x2="19.59" y2="612.33"/><line class="cls-2" x1="7.4" y1="632.07" x2="19.59" y2="632.07"/><line class="cls-2" x1="7.4" y1="671.56" x2="19.59" y2="671.56"/><line class="cls-2" x1="7.4" y1="691.3" x2="19.59" y2="691.3"/><line class="cls-2" x1="7.4" y1="711.04" x2="19.59" y2="711.04"/><line class="cls-2" x1="7.4" y1="730.79" x2="19.59" y2="730.79"/><line class="cls-2" x1="7.4" y1="750.53" x2="19.59" y2="750.53"/><line class="cls-2" x1="7.4" y1="770.27" x2="19.59" y2="770.27"/><line class="cls-2" x1="7.4" y1="790.01" x2="19.59" y2="790.01"/><line class="cls-2" x1="7.4" y1="809.76" x2="19.59" y2="809.76"/><line class="cls-2" x1="7.4" y1="829.5" x2="19.59" y2="829.5"/><line class="cls-2" x1="7.4" y1="849.24" x2="19.59" y2="849.24"/><line class="cls-1" y1="0.36" x2="24.35" y2="0.28"/><line class="cls-1" x1="0.63" y1="217.52" x2="25.01" y2="217.45"/><line class="cls-1" x1="1.95" y1="651.85" x2="26.33" y2="651.78"/><line class="cls-1" x1="2.61" y1="869.02" x2="26.99" y2="868.94"/><line class="cls-2" x1="1628.36" y1="20.06" x2="1640.55" y2="20.06"/><line class="cls-2" x1="1628.36" y1="39.8" x2="1640.55" y2="39.8"/><line class="cls-2" x1="1628.36" y1="59.55" x2="1640.55" y2="59.55"/><line class="cls-2" x1="1628.36" y1="79.29" x2="1640.55" y2="79.29"/><line class="cls-2" x1="1628.36" y1="99.03" x2="1640.55" y2="99.03"/><line class="cls-2" x1="1628.36" y1="118.77" x2="1640.55" y2="118.77"/><line class="cls-2" x1="1628.36" y1="138.52" x2="1640.55" y2="138.52"/><line class="cls-2" x1="1628.36" y1="158.26" x2="1640.55" y2="158.26"/><line class="cls-2" x1="1628.36" y1="178" x2="1640.55" y2="178"/><line class="cls-2" x1="1628.36" y1="197.74" x2="1640.55" y2="197.74"/><line class="cls-2" x1="1628.36" y1="237.23" x2="1640.55" y2="237.23"/><line class="cls-2" x1="1628.36" y1="256.97" x2="1640.55" y2="256.97"/><line class="cls-2" x1="1628.36" y1="612.33" x2="1640.55" y2="612.33"/><line class="cls-2" x1="1628.36" y1="632.07" x2="1640.55" y2="632.07"/><line class="cls-2" x1="1628.36" y1="671.56" x2="1640.55" y2="671.56"/><line class="cls-2" x1="1628.36" y1="691.3" x2="1640.55" y2="691.3"/><line class="cls-2" x1="1628.36" y1="711.04" x2="1640.55" y2="711.04"/><line class="cls-2" x1="1628.36" y1="730.79" x2="1640.55" y2="730.79"/><line class="cls-2" x1="1628.36" y1="750.53" x2="1640.55" y2="750.53"/><line class="cls-2" x1="1628.36" y1="770.27" x2="1640.55" y2="770.27"/><line class="cls-2" x1="1628.36" y1="790.01" x2="1640.55" y2="790.01"/><line class="cls-2" x1="1628.36" y1="809.76" x2="1640.55" y2="809.76"/><line class="cls-2" x1="1628.36" y1="829.5" x2="1640.55" y2="829.5"/><line class="cls-2" x1="1628.36" y1="849.24" x2="1640.55" y2="849.24"/><line class="cls-1" x1="1620.96" y1="0.36" x2="1645.31" y2="0.28"/><line class="cls-1" x1="1621.59" y1="217.52" x2="1645.97" y2="217.45"/><line class="cls-1" x1="1622.91" y1="651.85" x2="1647.29" y2="651.78"/><line class="cls-1" x1="1623.57" y1="869.02" x2="1647.95" y2="868.94"/><line class="cls-1" x1="281.06" y1="0.32" x2="281.06" y2="868.37"/><line class="cls-1" x1="498.23" y1="0.32" x2="498.23" y2="868.37"/><line class="cls-1" x1="715.39" y1="217.27" x2="715.39" y2="868.37"/><line class="cls-1" x1="932.56" y1="217.27" x2="932.56" y2="868.37"/><line class="cls-1" x1="1149.73" y1="0.32" x2="1149.73" y2="868.37"/><line class="cls-1" x1="1366.89" y1="0.32" x2="1366.89" y2="868.37"/><line class="cls-1" x1="1584.06" y1="574.21" x2="1584.06" y2="868.37"/><line class="cls-1" x1="1584.06" y1="0.32" x2="1584.06" y2="294.48"/><line class="cls-1" x1="63.89" y1="574.82" x2="63.89" y2="868.37"/><line class="cls-1" x1="63.89" y1="0.32" x2="63.89" y2="294.67"/><line class="cls-3" x1="204.06" y1="388.52" x2="204.06" y2="480.17"/><line class="cls-3" x1="18.07" y1="294.67" x2="109.72" y2="294.67"/><line class="cls-3" x1="1538.23" y1="294.67" x2="1629.88" y2="294.67"/><line class="cls-3" x1="1538.23" y1="574.82" x2="1629.88" y2="574.82"/><line class="cls-3" x1="18.07" y1="574.82" x2="109.72" y2="574.82"/><circle class="cls-4" cx="281.06" cy="27.56" r="7.97"/><circle class="cls-4" cx="932.38" cy="819.32" r="7.97"/><circle class="cls-5" cx="822.98" cy="434.35" r="402.45"/><line class="cls-3" x1="1512.38" y1="482.76" x2="1512.38" y2="391.11"/></svg>