<svg id="Calque_1" data-name="Calque 1" xmlns="http://www.w3.org/2000/svg" viewBox="0 0 1920 1080" width="1920" height="1080"><defs><style>.cls-1,.cls-2,.cls-3,.cls-5{fill:none;stroke:#fff;stroke-miterlimit:10;}.cls-1{stroke-width:0.57px;}.cls-2,.cls-5{stroke-width:0.28px;}.cls-3{stroke-width:1.13px;}.cls-4{fill:#fff;}.cls-5{stroke-dasharray:11.97 11.97;}</style></defs><line class="cls-1" x1="881.72" y1="96.72" x2="199.92" y2="96.72"/><line class="cls-1" x1="1718.09" y1="96.72" x2="1038.28" y2="96.72"/><line class="cls-1" x1="1720.08" y1="313.88" x2="199.92" y2="313.88"/><line class="cls-1" x1="1648.64" y1="531.05" x2="340.09" y2="531.05"/><line class="cls-1" x1="1720.08" y1="748.22" x2="199.92" y2="748.22"/><line class="cls-2" x1="143.43" y1="116.46" x2="155.62" y2="116.46"/><line class="cls-2" x1="143.43" y1="136.2" x2="155.62" y2="136.2"/><line class="cls-2" x1="143.43" y1="155.95" x2="155.62" y2="155.95"/><line class="cls-2" x1="143.43" y1="175.69" x2="155.62" y2="175.69"/><line class="cls-2" x1="143.43" y1="195.43" x2="155.62" y2="195.43"/><line class="cls-2" x1="143.43" y1="215.17" x2="155.62" y2="215.17"/><line class="cls-2" x1="143.43" y1="234.92" x2="155.62" y2="234.92"/><line class="cls-2" x1="143.43" y1="254.66" x2="155.62" y2="254.66"/><line class="cls-2" x1="143.43" y1="274.4" x2="155.62" y2="274.4"/><line class="cls-2" x1="143.43" y1="294.14" x2="155.62" y2="294.14"/><line class="cls-2" x1="143.43" y1="333.63" x2="155.62" y2="333.63"/><line class="cls-2" x1="143.43" y1="353.37" x2="155.62" y2="353.37"/><line class="cls-2" x1="143.43" y1="708.73" x2="155.62" y2="708.73"/><line class="cls-2" x1="143.43" y1="728.47" x2="155.62" y2="728.47"/><line class="cls-2" x1="143.43" y1="767.96" x2="155.62" y2="767.96"/><line class="cls-2" x1="143.43" y1="787.7" x2="155.62" y2="787.7"/><line class="cls-2" x1="143.43" y1="807.44" x2="155.62" y2="807.44"/><line class="cls-2" x1="143.43" y1="827.19" x2="155.62" y2="827.19"/><line class="cls-2" x1="143.43" y1="846.93" x2="155.62" y2="846.93"/><line class="cls-2" x1="143.43" y1="866.67" x2="155.62" y2="866.67"/><line class="cls-2" x1="143.43" y1="886.41" x2="155.62" y2="886.41"/><line class="cls-2" x1="143.43" y1="906.16" x2="155.62" y2="906.16"/><line class="cls-2" x1="143.43" y1="925.9" x2="155.62" y2="925.9"/><line class="cls-2" x1="143.43" y1="945.64" x2="155.62" y2="945.64"/><line class="cls-1" x1="136.02" y1="96.76" x2="160.37" y2="96.68"/><line class="cls-1" x1="136.65" y1="313.92" x2="161.03" y2="313.85"/><line class="cls-1" x1="137.98" y1="748.25" x2="162.35" y2="748.18"/><line class="cls-1" x1="138.64" y1="965.42" x2="163.02" y2="965.34"/><line class="cls-2" x1="1764.39" y1="116.46" x2="1776.57" y2="116.46"/><line class="cls-2" x1="1764.39" y1="136.2" x2="1776.57" y2="136.2"/><line class="cls-2" x1="1764.39" y1="155.95" x2="1776.57" y2="155.95"/><line class="cls-2" x1="1764.39" y1="175.69" x2="1776.57" y2="175.69"/><line class="cls-2" x1="1764.39" y1="195.43" x2="1776.57" y2="195.43"/><line class="cls-2" x1="1764.39" y1="215.17" x2="1776.57" y2="215.17"/><line class="cls-2" x1="1764.39" y1="234.92" x2="1776.57" y2="234.92"/><line class="cls-2" x1="1764.39" y1="254.66" x2="1776.57" y2="254.66"/><line class="cls-2" x1="1764.39" y1="274.4" x2="1776.57" y2="274.4"/><line class="cls-2" x1="1764.39" y1="294.14" x2="1776.57" y2="294.14"/><line class="cls-2" x1="1764.39" y1="333.63" x2="1776.57" y2="333.63"/><line class="cls-2" x1="1764.39" y1="353.37" x2="1776.57" y2="353.37"/><line class="cls-2" x1="1764.39" y1="708.73" x2="1776.57" y2="708.73"/><line class="cls-2" x1="1764.39" y1="728.47" x2="1776.57" y2="728.47"/><line class="cls-2" x1="1764.39" y1="767.96" x2="1776.57" y2="767.96"/><line class="cls-2" x1="1764.39" y1="787.7" x2="1776.57" y2="787.7"/><line class="cls-2" x1="1764.39" y1="807.44" x2="1776.57" y2="807.44"/><line class="cls-2" x1="1764.39" y1="827.19" x2="1776.57" y2="827.19"/><line class="cls-2" x1="1764.39" y1="846.93" x2="1776.57" y2="846.93"/><line class="cls-2" x1="1764.39" y1="866.67" x2="1776.57" y2="866.67"/><line class="cls-2" x1="1764.39" y1="886.41" x2="1776.57" y2="886.41"/><line class="cls-2" x1="1764.39" y1="906.16" x2="1776.57" y2="906.16"/><line class="cls-2" x1="1764.39" y1="925.9" x2="1776.57" y2="925.9"/><line class="cls-2" x1="1764.39" y1="945.64" x2="1776.57" y2="945.64"/><line class="cls-1" x1="1756.98" y1="96.76" x2="1781.33" y2="96.68"/><line class="cls-1" x1="1757.61" y1="313.92" x2="1781.99" y2="313.85"/><line class="cls-1" x1="1758.94" y1="748.25" x2="1783.31" y2="748.18"/><line class="cls-1" x1="1759.6" y1="965.42" x2="1783.98" y2="965.34"/><line class="cls-1" x1="417.08" y1="96.72" x2="417.08" y2="964.77"/><line class="cls-1" x1="634.25" y1="96.72" x2="634.25" y2="964.77"/><polyline class="cls-1" points="851.42 313.67 851.42 964.77 851.42 965.38 199.92 965.38"/><polyline class="cls-1" points="1068.58 313.67 1068.58 964.77 1068.58 965.38 1720.08 965.38"/><line class="cls-1" x1="1285.75" y1="96.72" x2="1285.75" y2="964.77"/><line class="cls-1" x1="1502.92" y1="96.72" x2="1502.92" y2="964.77"/><line class="cls-1" x1="1720.08" y1="670.61" x2="1720.08" y2="964.77"/><line class="cls-1" x1="1720.08" y1="96.72" x2="1720.08" y2="390.88"/><line class="cls-1" x1="199.92" y1="671.22" x2="199.92" y2="964.77"/><line class="cls-1" x1="199.92" y1="96.72" x2="199.92" y2="391.07"/><line class="cls-3" x1="340.09" y1="484.92" x2="340.09" y2="576.57"/><line class="cls-3" x1="154.09" y1="391.07" x2="245.74" y2="391.07"/><line class="cls-3" x1="1674.26" y1="391.07" x2="1765.91" y2="391.07"/><line class="cls-3" x1="1674.26" y1="671.22" x2="1765.91" y2="671.22"/><line class="cls-3" x1="154.09" y1="671.22" x2="245.74" y2="671.22"/><circle class="cls-4" cx="417.08" cy="123.96" r="7.97"/><circle class="cls-4" cx="1297.67" cy="748.22" r="7.97"/><circle class="cls-5" cx="959" cy="530.75" r="392.54"/><line class="cls-3" x1="1648.4" y1="579.16" x2="1648.4" y2="487.51"/><line class="cls-1" x1="851.42" y1="965.38" x2="881.72" y2="965.38"/><line class="cls-1" x1="881.72" y1="989.92" x2="881.72" y2="939.62"/><line class="cls-1" x1="1038.28" y1="989.92" x2="1038.28" y2="939.62"/><line class="cls-1" x1="1038.28" y1="965.38" x2="1068.58" y2="965.38"/><line class="cls-1" x1="881.72" y1="121.87" x2="881.72" y2="71.57"/><line class="cls-1" x1="1038.28" y1="121.87" x2="1038.28" y2="71.57"/></svg>