<svg id="Calque_1" data-name="Calque 1" xmlns="http://www.w3.org/2000/svg" viewBox="0 0 360 101.56"><defs><style>.cls-1{fill:#fff;}</style></defs><polygon class="cls-1" points="283.62 17.27 283.56 17.27 270.39 0.67 265.06 0.67 265.06 22.79 269.52 22.79 269.52 6.18 269.58 6.18 282.85 22.79 288.08 22.79 288.08 0.67 283.62 0.67 283.62 17.27"/><polygon class="cls-1" points="290.66 4.13 298.3 4.13 298.3 22.79 302.94 22.79 302.94 4.13 310.58 4.13 310.58 0.67 290.66 0.67 290.66 4.13"/><polygon class="cls-1" points="34.88 19.32 34.88 13.18 48.85 13.18 48.85 9.71 34.88 9.71 34.88 6.88 35.9 6.88 35.9 4.13 49.44 4.13 49.44 0.67 30.23 0.67 30.23 4.34 31.25 4.34 31.25 6.88 30.23 6.88 30.23 22.79 49.69 22.79 49.69 19.32 34.88 19.32"/><polygon class="cls-1" points="57.84 19.13 57.84 6.88 58.86 6.88 58.86 5.1 58.86 5.09 58.86 4.34 57.84 4.34 57.84 0.67 53.2 0.67 53.2 4.34 54.21 4.34 54.21 6.88 53.2 6.88 53.2 22.79 71.29 22.79 71.29 19.13 57.84 19.13"/><polygon class="cls-1" points="78.51 19.32 78.51 13.18 92.49 13.18 92.49 9.71 78.51 9.71 78.51 6.88 79.53 6.88 79.53 4.13 93.08 4.13 93.08 0.67 73.86 0.67 73.86 4.34 74.88 4.34 74.88 6.88 73.86 6.88 73.86 22.79 93.32 22.79 93.32 19.32 78.51 19.32"/><rect class="cls-1" x="96.83" y="0.67" width="0.54" height="22.12"/><path class="cls-1" d="M894.8,164.52a4.51,4.51,0,0,0,3-4.62c0-2.82-1.31-5.52-6.36-5.52H880.07v-.66h-2v22.09h1.44v.7H891.3c6,0,7.53-4,7.53-6.51A5.23,5.23,0,0,0,894.8,164.52Zm-13.32-6.67h7.87c2.69,0,3.81.87,3.81,2.7,0,2.51-1.71,2.82-3,2.82h-8.67ZM889.81,173h-8.33v-6.39h9c2.08,0,3.5,1.09,3.5,3.13C894,172.63,891.89,173,889.81,173Z" transform="translate(-780 -153.72)"/><path class="cls-1" d="M923.68,171.77a16.34,16.34,0,0,0-.1-1.91h-1a8,8,0,0,0-.28-1.38h.95a3.55,3.55,0,0,0-2.84-2.69v-.07a5.21,5.21,0,0,0,3.66-5.33c0-3.44-1.83-6-7.47-6h-14v14.1h-.95v1.38h.95v6.65h4.65v-6.65h-1v-1.38h1v-.71h7.9a3.86,3.86,0,0,1,2.52.71h-1a3,3,0,0,1,.94,1.38h1a10.43,10.43,0,0,1,.38,3.3,7.5,7.5,0,0,0,.56,3.35h5C923.71,175.3,923.68,172.82,923.68,171.77Zm-8.36-7.47h-8v-6.45h8c2.44,0,4,.9,4,3.19C919.28,163.52,917.89,164.3,915.32,164.3Z" transform="translate(-780 -153.72)"/><polygon class="cls-1" points="152.55 14.76 152.55 0.67 147.9 0.67 147.9 14.76 146.57 14.76 146.57 16.15 147.9 16.15 147.9 22.79 152.55 22.79 152.55 16.15 151.59 16.15 151.59 14.76 152.55 14.76"/><polygon class="cls-1" points="175.05 0.67 155.12 0.67 155.12 4.13 162.76 4.13 162.76 14.88 161.98 14.88 161.98 16.27 162.76 16.27 162.76 22.79 167.41 22.79 167.41 16.91 166.45 16.91 166.45 14.88 167.41 14.88 167.41 4.13 175.05 4.13 175.05 0.67"/><polygon class="cls-1" points="190.56 14.36 200.22 0.67 194.56 0.67 188.23 10.52 181.91 0.67 176.46 0.67 176.24 0.67 176.46 0.97 185.91 14.36 185.91 15.57 186.28 15.57 186.28 19.06 185.91 19.06 185.91 22.79 190.56 22.79 190.56 19.06 190.93 19.06 190.93 15.57 190.56 15.57 190.56 14.36"/><polygon class="cls-1" points="231.83 0.67 231.83 9.28 229.6 9.28 229.6 10.26 228.3 10.26 228.3 9.28 216.61 9.29 216.61 8.68 218.1 8.68 218.1 0.67 213.46 0.67 213.46 8.68 212.05 8.68 212.05 10.34 213.46 10.34 213.46 22.79 218.1 22.79 218.1 12.75 231.83 12.75 231.83 22.79 236.48 22.79 236.48 0.67 231.83 0.67"/><path class="cls-1" d="M1037,154.38v12.49c0,3.07-.12,6.79-6.2,6.79s-6.16-3.72-6.16-6.79v-8.75h-1.22v-.81h-4.59v1.18h1.16V167c0,3.66.12,10.14,10.81,10.14s10.85-6.48,10.85-10.14V154.38Z" transform="translate(-780 -153.72)"/><rect class="cls-1" x="239.94" y="0.67" width="4.65" height="2.25"/><polygon class="cls-1" points="332.59 19.32 317.78 19.32 317.78 13.18 331.76 13.18 331.76 9.71 317.78 9.71 317.78 4.13 332.35 4.13 332.35 0.67 313.13 0.67 313.13 22.79 318.53 22.79 318.53 21.9 325.7 21.9 325.7 22.67 321.07 22.68 321.07 23.38 328.17 23.38 328.18 22.79 332.59 22.79 332.59 19.32"/><path class="cls-1" d="M1138.37,169.44a15.11,15.11,0,0,0,.47-3.78,14.67,14.67,0,0,0-1.27-6.62h1.8c-1.43-2.84-4.29-4.66-9.54-4.66h-11.91v4.69h-1.82v17.44h13c4.38,0,6.94-2.06,8.32-4.72h1.63a11.21,11.21,0,0,0,.91-2.35Zm-6.52,2.35a7.38,7.38,0,0,1-4.57,1.25h-6.53V159h1.72v-1.19h6.37a7.84,7.84,0,0,1,4.65,1.19h-1.8c1.42,1,2.5,2.93,2.5,6.44a10.86,10.86,0,0,1-.63,4h1.64a5.29,5.29,0,0,1-1.72,2.35Z" transform="translate(-780 -153.72)"/><path class="cls-1" d="M802.12,162.56h5a9.25,9.25,0,0,0-.42-2h1a8.44,8.44,0,0,0-1.32-2.54h-1c-1.91-2.55-5.33-4.3-10.34-4.3s-8.15,1.71-10.11,4.3h1a10.44,10.44,0,0,0-1.39,2.54h-1a13.36,13.36,0,0,0-.86,4.84,14,14,0,0,0,.52,3.8H780a12.22,12.22,0,0,0,.67,1.81h3.22c1.69,3.56,5.19,6.08,10.61,6.08,9.11,0,12-4.68,12.64-9.08h-5c-.37,2.32-2,5.61-6.81,5.61a7.64,7.64,0,0,1-6-2.61h-3.22a7.39,7.39,0,0,1-1.11-1.81h3.22a8.54,8.54,0,0,1-.67-3.39,10.34,10.34,0,0,1,1.23-5.25h1a6.48,6.48,0,0,1,2.63-2.54h-1a7.77,7.77,0,0,1,3.61-.83,8.75,8.75,0,0,1,3.89.83h1a5.73,5.73,0,0,1,2.63,2.54h-1A6.16,6.16,0,0,1,802.12,162.56Z" transform="translate(-780 -153.72)"/><path class="cls-1" d="M781.43,185.74v27.11h357.14V185.74ZM783.25,211V187.57h353.5V211Z" transform="translate(-780 -153.72)"/><path class="cls-1" d="M806.26,197.94h-2.34a2.57,2.57,0,0,0-1-1.82,3.69,3.69,0,0,0-2.26-.66,3.23,3.23,0,0,0-2.48,1,4.27,4.27,0,0,0-1,3,3.46,3.46,0,0,0,3.61,3.64,3.11,3.11,0,0,0,2.37-.9,3,3,0,0,0,.8-1.71h2.34q-.62,4.22-5.88,4.22a5.31,5.31,0,0,1-4.14-1.63,5.44,5.44,0,0,1-1.35-3.8,5.38,5.38,0,0,1,1.35-3.81,5.77,5.77,0,0,1,4.4-1.63,6.34,6.34,0,0,1,4.05,1.21A4.14,4.14,0,0,1,806.26,197.94Z" transform="translate(-780 -153.72)"/><path class="cls-1" d="M818.65,204.42V194.13h2.16v4h6.39v-4h2.16v10.29H827.2v-4.67h-6.39v4.67Z" transform="translate(-780 -153.72)"/><path class="cls-1" d="M841,204.42l4.58-10.29h2.56l4.59,10.29h-2.41l-1.08-2.55h-4.84l-1.07,2.55Zm4-4.16h3.54l-1.76-4.34Z" transform="translate(-780 -153.72)"/><path class="cls-1" d="M863.71,197a2.71,2.71,0,0,1,1.33-2.45,6.05,6.05,0,0,1,3.21-.74q4.72,0,5,3.28H871a1.55,1.55,0,0,0-.65-1.13,3.16,3.16,0,0,0-1.95-.53c-1.59,0-2.39.47-2.39,1.41,0,.63.67,1.06,2,1.27,2.21.34,3.44.56,3.69.65a2.58,2.58,0,0,1,2,2.58A2.82,2.82,0,0,1,872,204a7.15,7.15,0,0,1-3.3.68q-5.18,0-5.22-3.62h2.33c.06,1.34,1.05,2,3,2a3.86,3.86,0,0,0,1.76-.34,1.24,1.24,0,0,0,.77-1.18c0-.68-.65-1.14-2-1.37q-3.52-.65-3.66-.69A2.54,2.54,0,0,1,863.71,197Z" transform="translate(-780 -153.72)"/><path class="cls-1" d="M885.06,197a2.7,2.7,0,0,1,1.32-2.45,6.07,6.07,0,0,1,3.22-.74c3.15,0,4.82,1.09,5,3.28h-2.34a1.52,1.52,0,0,0-.65-1.13,3.15,3.15,0,0,0-1.94-.53q-2.4,0-2.4,1.41c0,.63.67,1.06,2,1.27,2.21.34,3.44.56,3.69.65a2.58,2.58,0,0,1,2,2.58,2.82,2.82,0,0,1-1.64,2.66,7.15,7.15,0,0,1-3.3.68q-5.17,0-5.22-3.62h2.34c.05,1.34,1,2,3,2a3.83,3.83,0,0,0,1.76-.34,1.25,1.25,0,0,0,.78-1.18c0-.68-.66-1.14-2-1.37q-3.54-.65-3.66-.69A2.52,2.52,0,0,1,885.06,197Z" transform="translate(-780 -153.72)"/><path class="cls-1" d="M907,204.42V194.13h8.93v1.62h-6.77v2.59h6.5V200h-6.5v2.86H916v1.61Z" transform="translate(-780 -153.72)"/><path class="cls-1" d="M942.84,204.42l4.59-10.29H950l4.58,10.29h-2.4l-1.08-2.55h-4.84l-1.07,2.55Zm5.81-13,1.28,2h-1.71l-2-2Zm-1.76,8.82h3.55l-1.76-4.34Z" transform="translate(-780 -153.72)"/><path class="cls-1" d="M981.9,204.42V194.13h2.16v8.59h6.25v1.7Z" transform="translate(-780 -153.72)"/><path class="cls-1" d="M1001.21,196.18v-2.05h2.25v1.56c0,1.73-.75,2.69-2.25,2.89v-.85a1.41,1.41,0,0,0,.83-.56,2,2,0,0,0,.23-1Z" transform="translate(-780 -153.72)"/><path class="cls-1" d="M1016.58,204.42V194.13h2.17v4h6.38v-4h2.16v10.29h-2.16v-4.67h-6.38v4.67Z" transform="translate(-780 -153.72)"/><path class="cls-1" d="M1045.54,204.71a6.2,6.2,0,0,1-4.66-1.63,5.87,5.87,0,0,1,0-7.61,7.46,7.46,0,0,1,9.31,0,5.87,5.87,0,0,1,0,7.61A6.2,6.2,0,0,1,1045.54,204.71Zm0-1.61a3.73,3.73,0,0,0,2.81-1.07,3.79,3.79,0,0,0,1-2.75,3.84,3.84,0,0,0-1-2.78,4.28,4.28,0,0,0-5.59,0,3.84,3.84,0,0,0-1,2.78,3.75,3.75,0,0,0,1,2.75A3.7,3.7,0,0,0,1045.54,203.1Z" transform="translate(-780 -153.72)"/><path class="cls-1" d="M1063.78,204.42V194.13h3.11l3.6,8,3.58-8h3.08v10.29h-2l.09-8.5h0l-3.81,8.5h-1.84l-3.78-8.5h0l.09,8.5Z" transform="translate(-780 -153.72)"/><path class="cls-1" d="M1089.92,204.42V194.13H1093l3.61,8,3.57-8h3.08v10.29h-2l.09-8.5h0l-3.81,8.5h-1.84l-3.78-8.5h0l.08,8.5Z" transform="translate(-780 -153.72)"/><path class="cls-1" d="M1116.06,204.42V194.13H1125v1.62h-6.78v2.59h6.5V200h-6.5v2.86h6.89v1.61Z" transform="translate(-780 -153.72)"/><path class="cls-1" d="M874,243.7a.78.78,0,0,1-.54-.17.74.74,0,0,1-.16-.54V224.9a.75.75,0,0,1,.16-.55.83.83,0,0,1,.54-.15h3.26a1,1,0,0,1,.58.14,1,1,0,0,1,.35.42l5,10.52,5.06-10.52a1.08,1.08,0,0,1,.36-.42,1,1,0,0,1,.57-.14h3.18a.79.79,0,0,1,.55.15.8.8,0,0,1,.16.55V243a.79.79,0,0,1-.16.54.74.74,0,0,1-.55.17h-2.3a.61.61,0,0,1-.71-.71v-12.8l-4,8.19a1.06,1.06,0,0,1-.35.42,1,1,0,0,1-.58.14H882a1,1,0,0,1-.57-.14,1.08,1.08,0,0,1-.36-.42l-4-8.19V243a.79.79,0,0,1-.15.54.75.75,0,0,1-.55.17Z" transform="translate(-780 -153.72)"/><path class="cls-1" d="M901.88,243.7q-.57,0-.57-.42a1.18,1.18,0,0,1,.08-.36c0-.14.09-.29.15-.46l6.25-17.53a1.5,1.5,0,0,1,.24-.44.68.68,0,0,1,.29-.22,1.22,1.22,0,0,1,.48-.07h3.12a1,1,0,0,1,.66.17,1.21,1.21,0,0,1,.36.56l6.24,17.53.16.46a1.13,1.13,0,0,1,.07.36c0,.28-.19.42-.56.42h-3.1a1,1,0,0,1-.63-.16,1.09,1.09,0,0,1-.35-.57l-1.16-3.72h-6.72l-1.1,3.72a1.16,1.16,0,0,1-.35.57,1.07,1.07,0,0,1-.66.16Zm10.86-7.49-2.5-8.16-2.45,8.16Z" transform="translate(-780 -153.72)"/><path class="cls-1" d="M928.3,243.7a.73.73,0,0,1-.53-.17.7.7,0,0,1-.17-.54V224.9a.71.71,0,0,1,.17-.55.78.78,0,0,1,.53-.15h3.12a1.34,1.34,0,0,1,.62.11,1.3,1.3,0,0,1,.4.45l7.6,13.09V224.9a.75.75,0,0,1,.16-.55.81.81,0,0,1,.54-.15h2.31a.58.58,0,0,1,.7.7V243a.74.74,0,0,1-.16.54.71.71,0,0,1-.54.17h-3.13a1.37,1.37,0,0,1-.62-.11,1.28,1.28,0,0,1-.39-.45l-7.6-13V243a.79.79,0,0,1-.15.54.75.75,0,0,1-.55.17Z" transform="translate(-780 -153.72)"/><path class="cls-1" d="M954.58,243.7a.73.73,0,0,1-.53-.17.74.74,0,0,1-.17-.54V224.9a.75.75,0,0,1,.17-.55.78.78,0,0,1,.53-.15h2.82a.57.57,0,0,1,.7.7v7.23h7.77V224.9a.71.71,0,0,1,.17-.55.78.78,0,0,1,.53-.15h2.81a.77.77,0,0,1,.55.15.75.75,0,0,1,.16.55V243a.74.74,0,0,1-.16.54.72.72,0,0,1-.55.17h-2.81a.73.73,0,0,1-.53-.17.7.7,0,0,1-.17-.54V235.4H958.1V243a.79.79,0,0,1-.15.54.75.75,0,0,1-.55.17Z" transform="translate(-780 -153.72)"/><path class="cls-1" d="M988.15,244.18a8.29,8.29,0,0,1-5.95-2,7.41,7.41,0,0,1-2.09-5.67V224.9a.75.75,0,0,1,.16-.55.83.83,0,0,1,.54-.15h2.81a.77.77,0,0,1,.55.15.75.75,0,0,1,.16.55v11.82a4.17,4.17,0,0,0,1,3,4.48,4.48,0,0,0,5.69,0,4.22,4.22,0,0,0,1-3V224.9a.75.75,0,0,1,.17-.55.78.78,0,0,1,.53-.15h2.82a.57.57,0,0,1,.7.7v11.65a7.43,7.43,0,0,1-2.09,5.63A8.32,8.32,0,0,1,988.15,244.18Z" transform="translate(-780 -153.72)"/><path class="cls-1" d="M1006.92,243.7a.73.73,0,0,1-.53-.17.74.74,0,0,1-.17-.54V224.9a.75.75,0,0,1,.17-.55.78.78,0,0,1,.53-.15h3.13a1.4,1.4,0,0,1,.62.11,1.28,1.28,0,0,1,.39.45l7.6,13.09V224.9a.71.71,0,0,1,.17-.55.78.78,0,0,1,.53-.15h2.31a.57.57,0,0,1,.7.7V243a.79.79,0,0,1-.15.54.75.75,0,0,1-.55.17h-3.12a1.34,1.34,0,0,1-.62-.11,1.2,1.2,0,0,1-.4-.45l-7.6-13V243a.79.79,0,0,1-.15.54.74.74,0,0,1-.55.17Z" transform="translate(-780 -153.72)"/><path class="cls-1" d="M1037.23,243.7a.78.78,0,0,1-.54-.17.74.74,0,0,1-.16-.54V227.57h-5.24a.73.73,0,0,1-.53-.16.78.78,0,0,1-.17-.54v-2a.75.75,0,0,1,.17-.55.78.78,0,0,1,.53-.15H1046a.79.79,0,0,1,.55.15.8.8,0,0,1,.15.55v2a.83.83,0,0,1-.15.54.74.74,0,0,1-.55.16h-5.23V243a.74.74,0,0,1-.16.54.72.72,0,0,1-.55.17Z" transform="translate(-780 -153.72)"/><polygon class="cls-1" points="315.62 101.56 44.38 101.56 44.38 80.05 69.12 80.05 69.12 80.89 45.22 80.89 45.22 100.73 314.78 100.73 314.78 80.89 290.88 80.89 290.88 80.05 315.62 80.05 315.62 101.56"/></svg>