<svg id="Calque_1" data-name="Calque 1" xmlns="http://www.w3.org/2000/svg" viewBox="0 0 224.64 62.84" width="224.64" height="62.84"><defs><style>.cls-1,.cls-3{fill:#fff;}.cls-1{opacity:0.25;}.cls-2{fill:none;stroke:#fff;stroke-miterlimit:10;}</style></defs><circle class="cls-1" cx="31.42" cy="31.42" r="30.92"/><circle class="cls-2" cx="31.42" cy="31.42" r="30.92"/><path class="cls-3" d="M-260.87,369a.71.71,0,0,0-.72,0l-11.67,8.22h-4.07a.69.69,0,0,0-.69.69v12.8a.69.69,0,0,0,.69.69h4.07l11.67,8.22a.72.72,0,0,0,.4.12.71.71,0,0,0,.32-.07.71.71,0,0,0,.37-.61v-29.5A.68.68,0,0,0-260.87,369Z" transform="translate(293.99 -352.88)"/><path class="cls-3" d="M-251,384.3l3.62-3.95a1.18,1.18,0,0,0-.08-1.66,1.17,1.17,0,0,0-1.66.07l-3.48,3.8-3.47-3.8a1.17,1.17,0,0,0-1.66-.07,1.17,1.17,0,0,0-.08,1.66l3.62,3.95-3.62,3.95a1.18,1.18,0,0,0,.08,1.67,1.18,1.18,0,0,0,.79.3,1.15,1.15,0,0,0,.87-.38l3.47-3.79,3.48,3.79a1.15,1.15,0,0,0,.87.38,1.18,1.18,0,0,0,.79-.3,1.19,1.19,0,0,0,.08-1.67Z" transform="translate(293.99 -352.88)"/><circle class="cls-1" cx="193.22" cy="31.42" r="30.92"/><circle class="cls-2" cx="193.22" cy="31.42" r="30.92"/><path class="cls-3" d="M-99.08,369a.7.7,0,0,0-.71,0l-11.68,8.22h-4.06a.69.69,0,0,0-.69.69v12.8a.69.69,0,0,0,.69.69h4.06l11.68,8.22a.71.71,0,0,0,.39.12.71.71,0,0,0,.32-.07.69.69,0,0,0,.37-.61v-29.5A.67.67,0,0,0-99.08,369Z" transform="translate(293.99 -352.88)"/><path class="cls-3" d="M-90.34,392.41a1,1,0,0,1-.83-.44,1,1,0,0,1,.27-1.38h0a8,8,0,0,0,2.24-11.08A7.79,7.79,0,0,0-90,377.93a1,1,0,0,1-.08-1.41,1,1,0,0,1,1.42-.08,10,10,0,0,1,.79,14.12,9.63,9.63,0,0,1-1.9,1.65A.89.89,0,0,1-90.34,392.41Z" transform="translate(293.99 -352.88)"/><path class="cls-3" d="M-92.34,389.4a.94.94,0,0,1-.75-.33,1,1,0,0,1,.08-1.41,5,5,0,0,0,.4-7.06c-.13-.14-.26-.27-.4-.4a1,1,0,0,1-.08-1.41,1,1,0,0,1,1.42-.08,7,7,0,0,1,.55,9.89,7.14,7.14,0,0,1-.55.55A1,1,0,0,1-92.34,389.4Z" transform="translate(293.99 -352.88)"/><path class="cls-3" d="M-95.34,387.17a1,1,0,0,1-.75-.34,1,1,0,0,1,.08-1.41,2,2,0,0,0,.18-2.82l-.18-.18a1,1,0,0,1-.08-1.41,1,1,0,0,1,1.42-.08,4,4,0,0,1,.35,5.65,3.85,3.85,0,0,1-.35.35A1,1,0,0,1-95.34,387.17Z" transform="translate(293.99 -352.88)"/></svg>