<?xml version="1.0" encoding="utf-8"?>
<!-- Generator: Adobe Illustrator 24.0.2, SVG Export Plug-In . SVG Version: 6.00 Build 0)  -->
<svg version="1.1" id="Layer_1" xmlns="http://www.w3.org/2000/svg" xmlns:xlink="http://www.w3.org/1999/xlink" x="0px" y="0px"
	 viewBox="0 0 1333.6 383.8" style="enable-background:new 0 0 1333.6 383.8;" xml:space="preserve">
<style type="text/css">
	.st0{fill:#ED2525;}
	.st1{fill:#FFFFFF;}
</style>
<g>
	<g>
		<path class="st0" d="M166.6,0L0,96.1l0,0l0,191.1l166.6,96.2l166.6-96.2V96.1L166.6,0z M310.3,278.3l-143.7,82.9l-79.7-46v-41
			l79.7,46l143.7-82.9V278.3z M310.3,214.4l-143.7,82.9L64,238v64l-41-23.7v-64v-41v-64L64,133v64l102.6,59.2l143.7-82.9V214.4z
			 M310.3,150.4l-143.7,82.9l-79.7-46v-41l79.7,46l143.7-82.9V150.4z"/>
		
			<ellipse transform="matrix(0.7992 -0.6011 0.6011 0.7992 -27.6784 202.0045)" class="st0" cx="288.5" cy="142.4" rx="10.3" ry="5.8"/>
		
			<ellipse transform="matrix(0.7992 -0.6011 0.6011 0.7992 -66.1051 214.8429)" class="st0" cx="288.5" cy="206.4" rx="10.3" ry="5.8"/>
		
			<ellipse transform="matrix(0.7992 -0.6011 0.6011 0.7992 -104.5318 227.6813)" class="st0" cx="288.5" cy="270.3" rx="10.3" ry="5.8"/>
	</g>
	<g>
		<g>
			<path class="st1" d="M460.9,103.3v66.5h-20.2v-66.5H417V86h67.5v17.3H460.9z"/>
			<path class="st1" d="M574,152c-1.7,4.1-4.1,7.7-7.3,10.6c-3.2,3-7,5.3-11.4,6.9c-4.5,1.7-9.4,2.5-14.8,2.5
				c-5.5,0-10.5-0.8-14.9-2.5c-4.4-1.7-8.2-4-11.2-6.9c-3.1-3-5.4-6.5-7.1-10.6c-1.7-4.1-2.5-8.7-2.5-13.8V86h20.1v50.5
				c0,2.3,0.3,4.5,0.9,6.5c0.6,2.1,1.5,3.9,2.7,5.5c1.2,1.6,2.8,2.9,4.8,3.8c2,0.9,4.4,1.4,7.3,1.4c2.8,0,5.3-0.5,7.3-1.4
				c2-0.9,3.6-2.2,4.9-3.8c1.3-1.6,2.2-3.4,2.7-5.5c0.5-2.1,0.8-4.2,0.8-6.5V86h20.2v52.2C576.6,143.2,575.7,147.8,574,152z"/>
			<path class="st1" d="M649.5,169.8l-18.2-33.2h-6.9v33.2h-19.7V86h31.9c4,0,7.9,0.4,11.8,1.2c3.8,0.8,7.3,2.2,10.3,4.2
				c3,2,5.5,4.6,7.3,7.8c1.8,3.2,2.7,7.3,2.7,12.1c0,5.7-1.5,10.4-4.6,14.3c-3.1,3.9-7.3,6.6-12.8,8.3l21.9,35.8H649.5z
				 M648.7,111.7c0-2-0.4-3.6-1.2-4.8c-0.8-1.2-1.9-2.2-3.2-2.8c-1.3-0.7-2.8-1.1-4.4-1.4c-1.6-0.2-3.2-0.4-4.7-0.4h-10.8v19.5h9.6
				c1.7,0,3.4-0.1,5.1-0.4c1.7-0.3,3.3-0.8,4.8-1.5c1.4-0.7,2.6-1.7,3.5-3.1C648.3,115.5,648.7,113.8,648.7,111.7z"/>
			<path class="st1" d="M748.2,169.8L714.5,115h-0.4l0.5,54.8h-19.6V86H718l33.6,54.6h0.4L751.5,86h19.6v83.7H748.2z"/>
			<path class="st1" d="M795.8,146.5v-15.4h30v15.4H795.8z"/>
			<path class="st1" d="M901.7,169.8l-31.1-38.6h-0.2v38.6h-19.7V86h19.7v34.1h0.4L900.6,86h25.3l-36.1,38.6l38.2,45.2H901.7z"/>
			<path class="st1" d="M946.5,169.8V86h56.3v17H966v15.8h34.8v16.2H966v17.4h38.9v17.3H946.5z"/>
			<path class="st1" d="M1070.8,134.3v35.5h-20.2v-35.5L1019.1,86h24.5l17.9,31l17.9-31h23.7L1070.8,134.3z"/>
		</g>
		<g>
			<path class="st1" d="M450,295.5h-7.7v-68.7H417V220h58.2v6.8H450V295.5z"/>
			<path class="st1" d="M503.3,288.7h40.4v6.8h-48.1V220h46.8v6.8h-39.1v25.9h36.6v6.8h-36.6V288.7z"/>
			<path class="st1" d="M631.4,283.3c-1.3,1.9-2.8,3.7-4.6,5.4c-1.8,1.7-3.9,3.2-6.3,4.5c-2.4,1.3-5,2.3-7.9,3.1
				c-2.9,0.8-6,1.1-9.4,1.1c-5.7,0-10.9-1-15.8-3c-4.8-2-9-4.7-12.5-8.3c-3.5-3.5-6.2-7.7-8.2-12.5c-2-4.8-2.9-10.1-2.9-15.9
				c0-5.8,1-11.1,3-15.9s4.7-9,8.3-12.5c3.5-3.5,7.7-6.3,12.5-8.3c4.8-2,10-3,15.6-3c2.8,0,5.5,0.3,8.2,0.9c2.7,0.6,5.2,1.4,7.5,2.4
				c2.3,1,4.5,2.3,6.4,3.8c1.9,1.5,3.5,3.1,4.8,5l-6.4,4.7c-0.8-1.2-1.8-2.4-3.1-3.6c-1.3-1.2-2.9-2.3-4.6-3.2
				c-1.8-0.9-3.7-1.7-5.8-2.2c-2.1-0.6-4.4-0.9-6.8-0.9c-4.9,0-9.3,0.9-13.2,2.7c-3.9,1.8-7.2,4.2-9.9,7.2s-4.8,6.5-6.2,10.5
				c-1.4,4-2.1,8.1-2.1,12.5c0,4.4,0.7,8.6,2.2,12.5c1.5,4,3.5,7.5,6.2,10.5c2.7,3,6,5.4,9.9,7.2s8.2,2.7,13.1,2.7
				c4.3,0,8.5-0.9,12.4-2.7c3.9-1.8,7.2-4.6,9.8-8.5L631.4,283.3z"/>
			<path class="st1" d="M653.6,220h7.7v32.7h41.2V220h7.7v75.5h-7.7v-35.7h-41.2v35.7h-7.7V220z"/>
			<path class="st1" d="M792.8,284.3h0.2V220h7.7v75.5h-9.6l-43.9-64.9H747v64.9h-7.7V220h9.6L792.8,284.3z"/>
			<path class="st1" d="M904.4,257.8c0,5.8-1,11.1-3,15.9c-2,4.8-4.7,9-8.3,12.5c-3.5,3.5-7.7,6.3-12.5,8.3c-4.8,2-10,3-15.6,3
				c-5.6,0-10.8-1-15.6-3c-4.8-2-9-4.7-12.5-8.3c-3.5-3.5-6.3-7.7-8.3-12.5c-2-4.8-3-10.1-3-15.9c0-5.8,1-11.1,3-15.9
				c2-4.8,4.7-9,8.3-12.5c3.5-3.5,7.7-6.3,12.5-8.3c4.8-2,10-3,15.6-3c5.6,0,10.8,1,15.6,3c4.8,2,9,4.7,12.5,8.3
				c3.5,3.5,6.3,7.7,8.3,12.5C903.4,246.7,904.4,252,904.4,257.8z M896.3,257.8c0-4.4-0.7-8.6-2.1-12.6c-1.4-4-3.5-7.5-6.2-10.5
				c-2.7-3-6-5.4-9.9-7.2c-3.9-1.8-8.2-2.7-13.1-2.7c-4.8,0-9.2,0.9-13.1,2.7c-3.9,1.8-7.2,4.2-9.9,7.2c-2.7,3-4.8,6.5-6.2,10.5
				c-1.4,4-2.1,8.2-2.1,12.6c0,4.4,0.7,8.6,2.1,12.6c1.4,4,3.5,7.5,6.2,10.4s6,5.4,9.9,7.1s8.2,2.7,13.1,2.7c4.8,0,9.2-0.9,13.1-2.7
				c3.9-1.8,7.2-4.2,9.9-7.1s4.8-6.5,6.2-10.4C895.6,266.4,896.3,262.2,896.3,257.8z"/>
			<path class="st1" d="M937.2,288.7h35.2v6.8h-42.9V220h7.7V288.7z"/>
			<path class="st1" d="M1064.4,257.8c0,5.8-1,11.1-3,15.9c-2,4.8-4.7,9-8.3,12.5c-3.5,3.5-7.7,6.3-12.5,8.3c-4.8,2-10,3-15.6,3
				c-5.6,0-10.8-1-15.6-3c-4.8-2-9-4.7-12.5-8.3c-3.5-3.5-6.3-7.7-8.3-12.5c-2-4.8-3-10.1-3-15.9c0-5.8,1-11.1,3-15.9
				c2-4.8,4.7-9,8.3-12.5c3.5-3.5,7.7-6.3,12.5-8.3c4.8-2,10-3,15.6-3c5.6,0,10.8,1,15.6,3c4.8,2,9,4.7,12.5,8.3
				c3.5,3.5,6.3,7.7,8.3,12.5C1063.4,246.7,1064.4,252,1064.4,257.8z M1056.3,257.8c0-4.4-0.7-8.6-2.1-12.6c-1.4-4-3.5-7.5-6.2-10.5
				c-2.7-3-6-5.4-9.9-7.2c-3.9-1.8-8.2-2.7-13.1-2.7c-4.8,0-9.2,0.9-13.1,2.7c-3.9,1.8-7.2,4.2-9.9,7.2c-2.7,3-4.8,6.5-6.2,10.5
				c-1.4,4-2.1,8.2-2.1,12.6c0,4.4,0.7,8.6,2.1,12.6c1.4,4,3.5,7.5,6.2,10.4s6,5.4,9.9,7.1s8.2,2.7,13.1,2.7c4.8,0,9.2-0.9,13.1-2.7
				c3.9-1.8,7.2-4.2,9.9-7.1c2.7-3,4.8-6.5,6.2-10.4C1055.6,266.4,1056.3,262.2,1056.3,257.8z"/>
			<path class="st1" d="M1146.7,233.7c-2.6-2.8-5.8-4.9-9.4-6.5c-3.6-1.5-7.8-2.3-12.5-2.3c-4.8,0-9.2,0.9-13.1,2.7
				c-3.9,1.8-7.2,4.2-9.9,7.2c-2.7,3-4.8,6.5-6.2,10.5c-1.5,4-2.2,8.2-2.2,12.6c0,4.4,0.7,8.6,2.2,12.6c1.5,4,3.5,7.5,6.2,10.4
				s6,5.4,9.9,7.1c3.9,1.8,8.2,2.7,13.1,2.7c4.3,0,8.2-0.5,11.7-1.4c3.6-0.9,6.4-2.1,8.6-3.5v-22.9h-17.6V256h25.3v34.1
				c-4.1,2.5-8.6,4.3-13.3,5.6c-4.8,1.2-9.7,1.8-14.8,1.8c-5.7,0-10.9-1-15.8-3c-4.8-2-9-4.7-12.5-8.3c-3.5-3.5-6.2-7.7-8.2-12.5
				c-2-4.8-2.9-10.1-2.9-15.9c0-5.8,1-11.1,3-15.9c2-4.8,4.7-9,8.3-12.5c3.5-3.5,7.7-6.3,12.5-8.3c4.8-2,10-3,15.6-3
				c6,0,11.3,0.9,15.8,2.7c4.5,1.8,8.3,4.3,11.5,7.5L1146.7,233.7z"/>
			<path class="st1" d="M1189.3,295.5h-7.7V220h7.7V295.5z"/>
			<path class="st1" d="M1226,288.7h40.4v6.8h-48.1V220h46.8v6.8H1226v25.9h36.6v6.8H1226V288.7z"/>
			<path class="st1" d="M1327.1,232.2c-1.6-2.3-3.7-4.1-6.3-5.5c-2.6-1.4-5.7-2.1-9.3-2.1c-1.8,0-3.7,0.3-5.7,0.9
				c-1.9,0.6-3.7,1.4-5.2,2.6c-1.6,1.2-2.8,2.7-3.8,4.4c-1,1.8-1.4,3.9-1.4,6.3c0,2.4,0.5,4.4,1.4,6c0.9,1.6,2.1,2.9,3.7,4
				c1.5,1.1,3.3,2,5.2,2.7c2,0.7,4,1.4,6.1,2.1c2.6,0.9,5.3,1.8,7.9,2.8c2.7,1,5.1,2.3,7.2,3.9c2.1,1.6,3.9,3.6,5.2,6.1
				c1.4,2.5,2,5.6,2,9.3c0,3.8-0.7,7-2.2,9.8c-1.4,2.7-3.3,5-5.6,6.8c-2.3,1.8-4.9,3.1-7.9,3.9c-2.9,0.9-5.9,1.3-8.9,1.3
				c-2.3,0-4.6-0.2-6.8-0.7c-2.3-0.5-4.4-1.2-6.5-2.1c-2.1-0.9-4-2.1-5.8-3.5c-1.8-1.4-3.3-3.1-4.7-4.9l6.6-4.9
				c1.6,2.7,3.9,5,6.9,6.8c2.9,1.8,6.4,2.7,10.4,2.7c1.9,0,3.9-0.3,5.9-0.9c2-0.6,3.8-1.5,5.4-2.8c1.6-1.2,2.9-2.8,3.9-4.6
				c1-1.8,1.5-3.9,1.5-6.3c0-2.6-0.5-4.8-1.5-6.6c-1-1.7-2.4-3.2-4.1-4.4c-1.7-1.2-3.7-2.2-5.9-2.9c-2.2-0.8-4.5-1.6-6.9-2.3
				c-2.5-0.8-4.9-1.7-7.4-2.7c-2.4-1-4.6-2.3-6.5-3.9c-1.9-1.6-3.5-3.6-4.6-5.9c-1.2-2.3-1.8-5.2-1.8-8.6c0-3.6,0.7-6.8,2.2-9.4
				c1.5-2.6,3.4-4.8,5.7-6.5c2.3-1.7,4.9-3,7.8-3.7c2.8-0.8,5.6-1.2,8.4-1.2c5.1,0,9.5,0.9,13.1,2.7c3.6,1.8,6.4,4,8.2,6.5
				L1327.1,232.2z"/>
		</g>
	</g>
</g>
</svg>
