<svg id="Calque_1" data-name="Calque 1" xmlns="http://www.w3.org/2000/svg" viewBox="0 0 62.84 62.84"><defs><style>.cls-1,.cls-3{fill:#fff;}.cls-1{opacity:0.25;}.cls-2{fill:none;stroke:#fff;stroke-miterlimit:10;}</style></defs><circle class="cls-1" cx="31.42" cy="31.42" r="30.92"/><circle class="cls-2" cx="31.42" cy="31.42" r="30.92"/><path class="cls-3" d="M-320.27,553.58c-.22.23-.21.17,0,.39.58.65,1.21,1.25,1.82,1.87.11.11.17.13.29,0l7.62-7.63a1.58,1.58,0,0,0,.12-.15l.05,0v.17c0,1.72,0,3.44,0,5.16,0,.13,0,.18.17.18h2.88c0-3.55,0-7.11,0-10.66,0-.12,0-.14-.14-.14h-10.67c0,.68,0,1.35,0,2a8.68,8.68,0,0,0,0,1c.34,0,.67,0,1,0h4.53l-.21.19C-315.28,548.54-317.81,551-320.27,553.58Z" transform="translate(336.42 -509.08)"/><path class="cls-3" d="M-302.71,538.08c0,.1,0,.13.12.13H-292c.1,0,.13,0,.13-.13,0-.92,0-1.84,0-2.77,0-.13,0-.15-.16-.15h-5.34l0,0,.17-.16,7.61-7.61c.1-.09.12-.14,0-.25-.66-.65-1.32-1.3-2-2-.11-.1-.15-.09-.25,0l-7.66,7.66a.31.31,0,0,1-.14.11v-.18c0-1.73,0-3.45,0-5.17,0-.13,0-.16-.17-.16h-2.75c-.1,0-.13,0-.13.13Z" transform="translate(336.42 -509.08)"/><path class="cls-3" d="M-318.08,525.23c-.23-.22-.17-.21-.39,0-.65.58-1.25,1.21-1.87,1.82-.11.11-.13.17,0,.29l7.63,7.62.15.12,0,0h-5.33c-.13,0-.18,0-.18.17,0,1,0,1.92,0,2.88h10.66c.12,0,.14,0,.14-.14,0-3.56,0-7.11,0-10.67h-2a8.68,8.68,0,0,0-1,0c0,.34,0,.67,0,1v4.53l-.19-.21C-313,530.22-315.53,527.69-318.08,525.23Z" transform="translate(336.42 -509.08)"/><path class="cls-3" d="M-302.58,542.79c-.1,0-.13,0-.13.12v10.55c0,.1,0,.13.13.13h2.77c.13,0,.15-.05.15-.16,0-1.72,0-3.44,0-5.17v-.17l0,0,.16.17,7.61,7.61c.09.1.14.12.25,0,.65-.66,1.3-1.32,2-2,.1-.11.09-.15,0-.25l-7.66-7.66a.31.31,0,0,1-.11-.14h5.35c.13,0,.16,0,.16-.17,0-.92,0-1.83,0-2.75,0-.1,0-.13-.13-.13Z" transform="translate(336.42 -509.08)"/></svg>